<?xml version="1.0" encoding="utf-8"?>
<!-- Generator: Adobe Illustrator 18.1.1, SVG Export Plug-In . SVG Version: 6.00 Build 0)  -->
<svg version="1.1" id="Layer_1" xmlns="http://www.w3.org/2000/svg" xmlns:xlink="http://www.w3.org/1999/xlink" x="0px" y="0px"
	 viewBox="0 0 430.2 84" enable-background="new 0 0 430.2 84" xml:space="preserve">
<g>
	<g>
		<path fill="#FFFFFF" d="M236.5,27.9c-6.5-0.7-12.1,1.3-16.8,7v-1.8l0,0V2.4V2.1V0l-17.1,2.1v80.7h17.1V78c2.3,1.6,4.6,3.6,7.2,4.6
			c10,3.6,23.1,0.7,27.7-12.7c3-8.6,2.9-17.3,0.7-26C252.8,34.3,246.4,29,236.5,27.9z M239,62.9c-0.8,5.3-5,8.1-10,7.7
			c-1.3-0.1-2.4-0.4-3.4-0.8c-4.1-2.3-5.3-6.2-5.6-8.7c0,0,0,0,0,0c-0.3-3.8-0.6-11.7,1.3-15.4c1.6-2.9,4.3-4.4,7.9-4.5
			c5.2-0.2,9.1,2.4,9.8,7.6C239.7,53.4,239.7,58.3,239,62.9z"/>
		<path fill="#FFFFFF" d="M297.2,28.9c-5.9-1.6-12-1.6-17.9,0c-8.9,2.4-14.8,8-16.8,16.9c-1,4.9-1.3,10.1-1,15.1
			c0.6,11.4,7.7,19.6,18.7,22.1c0.2,0,0.3,0.1,0.5,0.1h0c0,0,0,0,0.1,0c0.4,0.1,0.8,0.2,1.3,0.2c0.1,0,0.3,0,0.4,0c0,0,0,0,0,0
			c0.5,0.1,1.2,0.2,1.8,0.2c2.2,0.2,4.9,0.4,7.2,0.1c0,0,0,0,0,0c0.1,0,0.2,0,0.4,0c11.3-0.6,20-7.7,22.5-18.7
			c1.4-6,1.4-12.1,0-18.1C312.3,37.5,306.6,31.4,297.2,28.9z M297.9,62c-0.1,0.4-0.1,0.7-0.2,1.1c-1.1,5.1-4.8,7.8-9.7,7.6
			c-5.3-0.2-8.9-3.3-9.4-8.6c-0.4-3.8-0.4-7.8-0.1-11.6c0.5-6.1,4.3-9.4,10-9.3c4.7,0.1,8,2.7,9.2,7.2C298.8,52.9,298,61,297.9,62z"
			/>
		<path fill="#FFFFFF" d="M40.2,28.6H27.9v-8.1c0.9-7.7,13.6-6.2,13.6-6.2l0-0.5l0-0.1V1.1h0v0h0C41.1,1,16.3-4.9,11.3,14
			c0,0,0,0,0,0c0,0,0,0.1,0,0.1c-0.8,2.4-0.7,13.2-0.7,14.5H0v14.5h11.2v39.3h16.4V43.1h12.5l1.4-14.5L40.2,28.6z"/>
		<path fill="#FFFFFF" d="M79.2,35.5c-0.2-0.2-0.4-0.4-0.6-0.6v0c0,0,0-0.1-0.1-0.1c-0.2-0.2-0.4-0.4-0.4-0.4l0,0
			c-3.9-3.9-5.3-4.9-8.3-5.8C58.2,25.2,46.9,31.3,43.3,43c-2.2,7.2-2.2,14.6-0.9,21.8c2.8,15.8,14.5,21,27,18.4
			c3.8-0.8,6.7-3.2,9.3-6.5c0,0,0.2-0.3,0.5-0.9v6.9h16V28.7h-16L79.2,35.5L79.2,35.5z M77.8,62.8c-0.5,5-4.6,8-9.4,7.8
			c-4.9-0.2-8.2-2.8-9.2-7.5c-1.3-6.7,0.2-14.7,0.3-15.3c1.3-4.5,4.6-6.7,9.4-6.6c4.7,0.1,8.3,2.9,8.9,7.8
			C78.3,53.5,78.3,58.2,77.8,62.8z"/>
		<path fill="#FFFFFF" d="M144,79c-0.7-2.7-1.6-5.4-2.4-8l-0.8-2.9c0,0-20,9.6-23.1-8.7c-0.3-3-0.2-6.1,0.2-9.1
			c0.8-5.6,4.2-8.6,9.7-9.1c1.8-0.2,3.8-0.1,5.6,0.2c2.5,0.4,4.9,1.2,7.6,1.8c0.9-2.9,1.9-5.7,2.8-8.6c0.1-0.5,0.3-0.8,0.4-1.2h0
			l0.5-1.7c-0.1-0.2-0.4-0.5-0.8-0.7c0,0,0,0,0,0c-0.5-0.4-1.2-0.7-2.5-1.2c-0.5-0.2-1-0.3-1.5-0.5c-0.4-0.1-0.7-0.2-0.7-0.2h0
			c-5.3-1.5-10.7-1.6-16.1-1c-11.6,1.2-19.4,8-21.6,19.3c-1.1,5.9-1.1,11.9,0.2,17.9c2,8.9,7.4,14.7,16.1,17.2
			c5.7,1.7,11.6,1.8,17.4,0.9c2.5-0.4,6-1.7,8.5-2.6l1-0.3L144,79L144,79z"/>
		<path fill="#FFFFFF" d="M196.7,57.8c-0.1-3.7,0-7.5-0.6-11.2c-1.5-10.1-7.6-16.5-17.6-18.2c-3.8-0.6-7.8-0.6-11.7-0.2
			c-10.6,1-18.6,7.6-20.2,17.5c-1,6-1.1,12.4-0.3,18.4c1.2,9.1,5.6,14.8,13.3,17.6c0,0,0,0,0,0c0,0,0.1,0,0.1,0c0,0,0,0,0,0
			c3.5,1,20.6,5.5,35.6-2.1l-0.6-2.2c0,0,0,0,0,0c-0.7-3-1.5-5.9-2.3-8.8l-0.1-0.3c0,0-0.3,0.1-0.9,0.3c0,0,0,0,0,0
			c-0.7,0.2-1.3,0.4-2,0.6c-0.1,0-0.2,0.1-0.4,0.1c-2.3,0.6-5.5,1.4-9,1.9c-2.9,0.3-5.8,0.3-8.7,0.1c-4.8-0.8-8.4-3.3-8.3-9.4h2.7
			c9.4,0,18.7,0,28.1,0c0.2,0,0.4,0,0.7,0l0,0c0,0,2,0,2.1,0c0,0,0-0.5,0-0.6L196.7,57.8z M181.3,50.4h-18.5
			c0.1-3.7,0.6-7.1,3.8-9.2c3.5-2.2,7.3-2.3,10.9-0.3C181.1,42.9,181.4,46.5,181.3,50.4z"/>
		<polygon fill="#FFFFFF" points="430.2,29.3 412,29.3 396.2,53.9 396.2,2.5 396.2,2.1 396.2,0 379.1,2.1 379.1,82.8 396.2,82.8 
			396.2,58.1 412,82.9 430.2,82.9 413,56 		"/>
		<path fill="#FFFFFF" d="M355.5,28.9c-5.9-1.6-12-1.6-17.9,0c-8.9,2.4-14.8,8-16.8,16.9c-1,4.9-1.3,10.1-1,15.1
			c0.6,11.4,7.7,19.6,18.7,22.1c0.2,0,0.3,0.1,0.5,0.1h0c0,0,0,0,0.1,0c0.4,0.1,0.8,0.2,1.3,0.2c0.1,0,0.3,0,0.4,0c0,0,0,0,0,0
			c0.5,0.1,1.2,0.2,1.8,0.2c2.2,0.2,4.9,0.4,7.2,0.1c0,0,0,0,0,0c0.1,0,0.2,0,0.3,0c11.3-0.6,20-7.7,22.5-18.7
			c1.4-6,1.4-12.1,0-18.1C370.7,37.5,365,31.4,355.5,28.9z M356.3,62c-0.1,0.4-0.1,0.7-0.2,1.1c-1.1,5.1-4.8,7.8-9.7,7.6
			c-5.3-0.2-8.9-3.3-9.4-8.6c-0.4-3.8-0.4-7.8-0.1-11.6c0.5-6.1,4.3-9.4,10-9.3c4.7,0.1,8,2.7,9.2,7.2C357.2,52.9,356.4,61,356.3,62
			z"/>
	</g>
</g>
</svg>
